<svg xmlns="http://www.w3.org/2000/svg" width="512" height="512"><path d="m 111.04,152.32 c -4.32,5.04 -6.48,11.16 -6.48,18.36 0,7.2 2.16,13.32 6.48,18.36 4.32,5.04 9.48,7.56 15.48,7.56 6,0 11.16,-2.52 15.48,-7.56 4.32,-5.04 6.48,-11.16 6.48,-18.36 0,-7.2 -2.16,-13.32 -6.48,-18.36 -4.32,-5.04 -9.48,-7.56 -15.48,-7.56 -6,0 -11.16,2.52 -15.48,7.56 z m 66.6,0 c -4.32,5.04 -6.48,11.16 -6.48,18.36 0,7.2 2.16,13.32 6.48,18.36 4.32,5.04 9.48,7.56 15.48,7.56 6,0 11.16,-2.52 15.48,-7.56 4.32,-5.04 6.48,-11.16 6.48,-18.36 0,-7.2 -2.16,-13.32 -6.48,-18.36 -4.32,-5.04 -9.48,-7.56 -15.48,-7.56 -6,0 -11.16,2.52 -15.48,7.56 z m -24.3,51.12 c -1.8,3.12 -2.7,6.12 -2.7,9 0,4.08 2.64,6.12 7.92,6.12 6.48,0 9.72,-2.4 9.72,-7.2 0,-2.88 -1.08,-5.7 -3.24,-8.46 -2.16,-2.76 -4.2,-4.14 -6.12,-4.14 -1.92,0 -3.78,1.56 -5.58,4.68 z m -65.7,52.92 c -3.364,7.2 -5.524,14.16 -6.48,20.88 -0.962,25.68 9.236,67.08 30.6,124.2 l -17.64,20.16 17.64,2.88 -20.16,17.28 29.88,-1.08 3.6,10.08 c 27.12,-9.36 48,-17.4 62.64,-24.12 6,-2.88 10.56,-5.28 13.68,-7.2 3.6,-2.88 5.4,-6 5.4,-9.36 0,-3.12 -1.8,-6 -5.4,-8.64 9.37,-20.88 17.31,-42.6 23.8,-65.16 2.64,-9.36 4.93,-18.48 6.85,-27.36 l 11.54,23.4 13.7,-22.32 11.18,24.48 c 11.53,-24 18.63,-39.48 21.27,-46.44 0.96,0.71 2.04,1.55 3.25,2.5 l 19.52,141.83 26.4,-3.57 -19.35,-137.84 c 6.91,-4.08 10.36,-9.62 10.36,-16.6 0,-9.14 -4.83,-15.39 -14.49,-18.76 L 297.52,128.2 c 76.8,8.4 131.76,30.24 164.88,65.52 C 452.08,171.88 439.86,153.16 425.7,137.56 392.12,100.12 352.55,81.4 306.98,81.4 c -13.44,0 -27.22,1.676 -41.38,5.023 0.76162,7.243525 2.25618,20.61325 2.95,26.627 l 20.03,145.46 c -9.14,-0.47 -25.47,-3.24 -49.02,-8.28 18.48,-16.31 27.72,-36 27.72,-59.04 0,-28.31 -10.92,-56.63 -32.76,-84.95 -23.04,-29.52 -47.64,-44.28 -73.8,-44.28 -26.4,0 -51.6,14.4 -75.6,43.2 C 61.838,133 50.2,160.84 50.2,188.68 c 0,27.36 12.476,49.92 37.44,67.68 z m 3.24,-46.44 c -8.404,-9.6 -12.6,-20.64 -12.6,-33.12 0,-21.12 8.156,-39.12 24.48,-54 15.84,-14.16 34.56,-21.24 56.16,-21.24 21.6,0 40.44,7.2 56.52,21.6 16.08,14.4 24.12,32.28 24.12,53.64 0,26.16 -15.12,43.68 -45.36,52.56 l 0,3.6 c 0,4.08 -1.44,7.68 -4.32,10.8 -2.88,3.12 -6.24,4.8 -10.08,5.04 -4.08,0.48 -7.2,-0.24 -9.36,-2.16 -3.12,2.4 -6.6,3.6 -10.44,3.6 -3.84,0 -7.2,-1.08 -10.08,-3.24 -2.16,1.68 -5.16,2.28 -9,1.8 -3.84,-0.24 -7.2,-1.92 -10.08,-5.04 -2.88,-3.12 -4.32,-6.72 -4.32,-10.8 l 0,-2.88 C 111.16,226.24 99.278,219.52 90.88,209.92 z" fill="#032f55" fill-rule="evenodd"/></svg>